# xmcd
#
# Track frame offsets: 
#        150
#        13642
#        26330
#        39115
#        50992
#        64285
#        77635
#        89732
#        102192
#        115685
#        126232
#        139097
#        151237
#        164622
#        177127
#        188145
#        201865
#        214052
#        226727
#        239945
#        251570
#        265190
#        279495
#        292912
#        304485
#        315612
#
# Disc length: 4345 seconds
#
# Revision: 3
# Processed by: cddbd v1.4PL0 Copyright (c) Steve Scherf et al.
# Submitted via: ExactAudioCopy v0.90b4
#
DISCID=7710f71a
DTITLE=Amos Milburn - The Best Of Amos Milburn: Down The Road Apiece
DYEAR=1993
DGENRE=Blues
TTITLE0=Down The Road Apiece
TTITLE1=Hold Me, Baby
TTITLE2=Chicken-Shack Boogie
TTITLE3=It Took A Long, Long Time
TTITLE4=Empty Arms Blues
TTITLE5=Bewildered
TTITLE6=In The Middle Of The Night
TTITLE7=Roomin' House Boogie
TTITLE8=Walkin' Blues
TTITLE9=Real Pretty Mama Blues
TTITLE10=Sax Shack Boogie
TTITLE11=Let's Rock A While
TTITLE12=Bad, Bad Whiskey
TTITLE13=Tears, Tears, Tears (Tears in My Eyes)
TTITLE14=Thinkin' And Drinkin'
TTITLE15=Put Something In My Hand (I Know You Love Me Baby)
TTITLE16=Roll, Mr. Jelly
TTITLE17=Let Me Go Home, Whiskey
TTITLE18=One Scotch, One Bourbon, One Beer
TTITLE19=Let's Have A Party
TTITLE20=Good, Good Whiskey
TTITLE21=Milk And Water
TTITLE22=Vicious, Vicious Vodka
TTITLE23=I Done Done It (Don't Do It)
TTITLE24=House Party (Tonight)
TTITLE25=Soft Pillow
EXTD=Original Recordings made fbetween 1946 and 1957
EXTT0=
EXTT1=
EXTT2=
EXTT3=
EXTT4=
EXTT5=
EXTT6=
EXTT7=
EXTT8=
EXTT9=
EXTT10=
EXTT11=
EXTT12=
EXTT13=
EXTT14=
EXTT15=
EXTT16=
EXTT17=
EXTT18=
EXTT19=
EXTT20=
EXTT21=
EXTT22=
EXTT23=
EXTT24=
EXTT25=
PLAYORDER=
